<mxfile host="app.diagrams.net" modified="2024-01-23T03:11:38.101Z" agent="Mozilla/5.0 (Windows NT 10.0; Win64; x64) AppleWebKit/537.36 (KHTML, like Gecko) Chrome/120.0.0.0 Safari/537.36" etag="yDRN-cEKC__YqBBP3Coa" version="22.1.19" type="device">
  <diagram name="Page-1" id="0T-ybvYKlrjQj57GpBDQ">
    <mxGraphModel dx="3475" dy="1390" grid="1" gridSize="10" guides="1" tooltips="1" connect="1" arrows="1" fold="1" page="1" pageScale="1" pageWidth="850" pageHeight="1100" math="0" shadow="0">
      <root>
        <mxCell id="0" />
        <mxCell id="1" parent="0" />
        <mxCell id="4VaZzmigpXHIkj4emQM7-1" value="" style="rounded=0;whiteSpace=wrap;html=1;" vertex="1" parent="1">
          <mxGeometry x="40" y="20" width="770" height="110" as="geometry" />
        </mxCell>
        <mxCell id="4VaZzmigpXHIkj4emQM7-2" value="" style="rounded=0;whiteSpace=wrap;html=1;" vertex="1" parent="1">
          <mxGeometry x="60" y="170" width="720" height="170" as="geometry" />
        </mxCell>
        <mxCell id="4VaZzmigpXHIkj4emQM7-3" value="&lt;font style=&quot;font-size: 18px;&quot;&gt;order button&lt;/font&gt;" style="rounded=1;whiteSpace=wrap;html=1;" vertex="1" parent="1">
          <mxGeometry x="360" y="280" width="120" height="40" as="geometry" />
        </mxCell>
        <mxCell id="4VaZzmigpXHIkj4emQM7-4" value="&lt;font style=&quot;font-size: 36px;&quot;&gt;some sort of entry text&lt;/font&gt;" style="rounded=1;whiteSpace=wrap;html=1;" vertex="1" parent="1">
          <mxGeometry x="150" y="180" width="570" height="70" as="geometry" />
        </mxCell>
        <mxCell id="4VaZzmigpXHIkj4emQM7-5" value="" style="whiteSpace=wrap;html=1;aspect=fixed;" vertex="1" parent="1">
          <mxGeometry x="-10" y="410" width="890" height="890" as="geometry" />
        </mxCell>
        <mxCell id="4VaZzmigpXHIkj4emQM7-6" value="" style="whiteSpace=wrap;html=1;aspect=fixed;" vertex="1" parent="1">
          <mxGeometry x="70" y="445" width="210" height="210" as="geometry" />
        </mxCell>
        <mxCell id="4VaZzmigpXHIkj4emQM7-8" value="" style="whiteSpace=wrap;html=1;aspect=fixed;" vertex="1" parent="1">
          <mxGeometry x="320" y="445" width="210" height="210" as="geometry" />
        </mxCell>
        <mxCell id="4VaZzmigpXHIkj4emQM7-9" value="" style="whiteSpace=wrap;html=1;aspect=fixed;" vertex="1" parent="1">
          <mxGeometry x="570" y="690" width="210" height="210" as="geometry" />
        </mxCell>
        <mxCell id="4VaZzmigpXHIkj4emQM7-38" value="" style="whiteSpace=wrap;html=1;aspect=fixed;" vertex="1" parent="1">
          <mxGeometry x="570" y="445" width="210" height="210" as="geometry" />
        </mxCell>
        <mxCell id="4VaZzmigpXHIkj4emQM7-39" value="" style="whiteSpace=wrap;html=1;aspect=fixed;" vertex="1" parent="1">
          <mxGeometry x="320" y="690" width="210" height="210" as="geometry" />
        </mxCell>
        <mxCell id="4VaZzmigpXHIkj4emQM7-40" value="" style="whiteSpace=wrap;html=1;aspect=fixed;" vertex="1" parent="1">
          <mxGeometry x="320" y="920" width="210" height="210" as="geometry" />
        </mxCell>
        <mxCell id="4VaZzmigpXHIkj4emQM7-41" value="" style="whiteSpace=wrap;html=1;aspect=fixed;" vertex="1" parent="1">
          <mxGeometry x="70" y="920" width="210" height="210" as="geometry" />
        </mxCell>
        <mxCell id="4VaZzmigpXHIkj4emQM7-42" value="" style="whiteSpace=wrap;html=1;aspect=fixed;" vertex="1" parent="1">
          <mxGeometry x="70" y="690" width="210" height="210" as="geometry" />
        </mxCell>
        <mxCell id="4VaZzmigpXHIkj4emQM7-43" value="" style="whiteSpace=wrap;html=1;aspect=fixed;" vertex="1" parent="1">
          <mxGeometry x="570" y="920" width="210" height="210" as="geometry" />
        </mxCell>
        <mxCell id="4VaZzmigpXHIkj4emQM7-45" value="&lt;font style=&quot;font-size: 24px;&quot;&gt;img&lt;/font&gt;" style="rounded=0;whiteSpace=wrap;html=1;" vertex="1" parent="1">
          <mxGeometry x="70" y="440" width="210" height="110" as="geometry" />
        </mxCell>
        <mxCell id="4VaZzmigpXHIkj4emQM7-46" value="&lt;font style=&quot;font-size: 24px;&quot;&gt;&lt;b&gt;img&lt;/b&gt;&lt;/font&gt;" style="rounded=0;whiteSpace=wrap;html=1;" vertex="1" parent="1">
          <mxGeometry x="570" y="690" width="210" height="110" as="geometry" />
        </mxCell>
        <mxCell id="4VaZzmigpXHIkj4emQM7-47" value="&lt;font style=&quot;font-size: 24px;&quot;&gt;img&lt;/font&gt;" style="rounded=0;whiteSpace=wrap;html=1;" vertex="1" parent="1">
          <mxGeometry x="570" y="445" width="210" height="110" as="geometry" />
        </mxCell>
        <mxCell id="4VaZzmigpXHIkj4emQM7-48" value="&lt;font style=&quot;font-size: 24px;&quot;&gt;img&lt;/font&gt;" style="rounded=0;whiteSpace=wrap;html=1;" vertex="1" parent="1">
          <mxGeometry x="320" y="440" width="210" height="110" as="geometry" />
        </mxCell>
        <mxCell id="4VaZzmigpXHIkj4emQM7-49" value="&lt;font style=&quot;font-size: 24px;&quot;&gt;img&lt;/font&gt;" style="rounded=0;whiteSpace=wrap;html=1;" vertex="1" parent="1">
          <mxGeometry x="70" y="690" width="210" height="110" as="geometry" />
        </mxCell>
        <mxCell id="4VaZzmigpXHIkj4emQM7-50" value="&lt;font style=&quot;font-size: 24px;&quot;&gt;img&lt;/font&gt;" style="rounded=0;whiteSpace=wrap;html=1;" vertex="1" parent="1">
          <mxGeometry x="70" y="920" width="210" height="110" as="geometry" />
        </mxCell>
        <mxCell id="4VaZzmigpXHIkj4emQM7-52" value="&lt;font style=&quot;font-size: 24px;&quot;&gt;img&lt;/font&gt;" style="rounded=0;whiteSpace=wrap;html=1;" vertex="1" parent="1">
          <mxGeometry x="570" y="920" width="210" height="110" as="geometry" />
        </mxCell>
        <mxCell id="4VaZzmigpXHIkj4emQM7-53" value="&lt;font style=&quot;font-size: 24px;&quot;&gt;img&lt;/font&gt;" style="rounded=0;whiteSpace=wrap;html=1;spacing=14;" vertex="1" parent="1">
          <mxGeometry x="320" y="690" width="210" height="110" as="geometry" />
        </mxCell>
        <mxCell id="4VaZzmigpXHIkj4emQM7-54" value="&lt;font style=&quot;font-size: 24px;&quot;&gt;img&lt;/font&gt;" style="rounded=0;whiteSpace=wrap;html=1;" vertex="1" parent="1">
          <mxGeometry x="320" y="920" width="210" height="110" as="geometry" />
        </mxCell>
        <mxCell id="4VaZzmigpXHIkj4emQM7-55" value="" style="rounded=0;whiteSpace=wrap;html=1;" vertex="1" parent="1">
          <mxGeometry x="10" y="1160" width="840" height="120" as="geometry" />
        </mxCell>
        <mxCell id="4VaZzmigpXHIkj4emQM7-56" value="&lt;font style=&quot;font-size: 24px;&quot;&gt;button&lt;/font&gt;" style="rounded=0;whiteSpace=wrap;html=1;" vertex="1" parent="1">
          <mxGeometry x="350" y="1230" width="120" height="40" as="geometry" />
        </mxCell>
        <mxCell id="4VaZzmigpXHIkj4emQM7-57" value="&lt;font style=&quot;font-size: 36px;&quot;&gt;nav items&lt;/font&gt;" style="rounded=0;whiteSpace=wrap;html=1;" vertex="1" parent="1">
          <mxGeometry x="560" y="50" width="230" height="60" as="geometry" />
        </mxCell>
        <mxCell id="4VaZzmigpXHIkj4emQM7-58" value="&lt;font style=&quot;font-size: 24px;&quot;&gt;name of the business&lt;/font&gt;" style="rounded=0;whiteSpace=wrap;html=1;" vertex="1" parent="1">
          <mxGeometry x="70" y="40" width="400" height="60" as="geometry" />
        </mxCell>
        <mxCell id="4VaZzmigpXHIkj4emQM7-59" value="&lt;font style=&quot;font-size: 24px;&quot;&gt;footer with the address&lt;/font&gt;" style="rounded=0;whiteSpace=wrap;html=1;" vertex="1" parent="1">
          <mxGeometry x="40" y="1180" width="780" height="40" as="geometry" />
        </mxCell>
      </root>
    </mxGraphModel>
  </diagram>
</mxfile>
